# xmcd
#
# Track frame offsets:
#	183
#	15078
#	27663
#	42473
#	57515
#	71993
#	85820
#	98805
#	110525
#	127780
#
# Disc length: 1968 seconds
#
# Revision: 3
# Processed by: cddbd v1.5.1PL0 Copyright (c) Steve Scherf et al.
# Submitted via: audiograbber 1.82.01
#
DISCID=8107ae0a
DTITLE=GeneWatson - At Last
DYEAR=1991
DGENRE=Country
TTITLE0=At Last
TTITLE1=You Can't Take It With You When You Go
TTITLE2=A Gifted Hand
TTITLE3=You Can't Get Arrested In Nashville
TTITLE4=She's Leavin' Looking Good
TTITLE5=This Could Go On Forever
TTITLE6=I Catch Myself
TTITLE7=Workin' The End Of A Hoe
TTITLE8=Only Yesterday
TTITLE9=This Country's Bigger Than Texas
EXTD=more info - MillenniumMusicProjectFormat - SYNTAX=SongTitle{Subtitle}[miscI
EXTD=nfo](Lyricist;Compose
EXTT0=
EXTT1=
EXTT2=
EXTT3=
EXTT4=
EXTT5=
EXTT6=
EXTT7=
EXTT8=
EXTT9=
PLAYORDER=
